# xmcd CD database file
#
# Track frame offsets:
#	150
#	600
#	23729
#	45543
#	67161
#	90273
#	110749
#	133249
#	154158
#	171702
#	199909
#	222703
#	245057
#	272441
#	295446
#	298644
#	305095
#
# Disc length: 4373 seconds
#
# Revision: 0
# Processed by: cddbd v1.5.1PL0 Copyright (c) Steve Scherf et al.
# Submitted via: CDex 1.51
#
DISCID=11111311
DTITLE=Various Artist - Serie 32 Se Botó La Salsa (disk 1)
DYEAR=1997
DGENRE=Salsa
TTITLE0=leer
TTITLE1=Cinco Noches - Paquito Guzmán
TTITLE2=Lobo Domesticado - Tommy Oliencia
TTITLE3=Desnudate Mujer - Frankie Ruiz
TTITLE4=Aquel Viejo Motel - David Pabón
TTITLE5=Despues De Hacer El Amor - Lalo Rodriguez
TTITLE6=Tu Me Quemas - Eddie Santiago
TTITLE7=Payaso - Andy Montañez
TTITLE8=Las Caraqueñas - Guaco
TTITLE9=Apariencias - Amilcar Boscan
TTITLE10=Aparentemente - Tony Vega
TTITLE11=Hay Otra En Tu Lugar - Ray Sepulveda
TTITLE12=Vivir Los Nuestro - India and Marc Anthony
TTITLE13=Bailemos Otra Vez - José Alberto
TTITLE14=Estar Enamorado - Noche Caliente
TTITLE15=Todo Se Derrumbo - Noche Caliente
TTITLE16=El Ladron De Tu Amor - Mentirosa - Noche Caliente
EXTD=YEAR: 1997
EXTT0=
EXTT1=
EXTT2=
EXTT3=
EXTT4=
EXTT5=
EXTT6=
EXTT7=
EXTT8=
EXTT9=
EXTT10=
EXTT11=
EXTT12=
EXTT13=
EXTT14=
EXTT15=
EXTT16=
PLAYORDER=
